<svg width="96" height="96" viewBox="0 0 96 96" fill="none" xmlns="http://www.w3.org/2000/svg">
<path d="M70 86C68.8667 86 67.9167 85.6167 67.15 84.85C66.3833 84.0833 66 83.1333 66 82V74H58C56.8667 74 55.9167 73.6167 55.15 72.85C54.3833 72.0833 54 71.1333 54 70C54 68.8667 54.3833 67.9167 55.15 67.15C55.9167 66.3833 56.8667 66 58 66H66V58C66 56.8667 66.3833 55.9167 67.15 55.15C67.9167 54.3833 68.8667 54 70 54C71.1333 54 72.0833 54.3833 72.85 55.15C73.6167 55.9167 74 56.8667 74 58V66H82C83.1333 66 84.0833 66.3833 84.85 67.15C85.6167 67.9167 86 68.8667 86 70C86 71.1333 85.6167 72.0833 84.85 72.85C84.0833 73.6167 83.1333 74 82 74H74V82C74 83.1333 73.6167 84.0833 72.85 84.85C72.0833 85.6167 71.1333 86 70 86ZM18 66V58C18 56.8667 18.3833 55.9167 19.15 55.15C19.9167 54.3833 20.8667 54 22 54C23.1333 54 24.0833 54.3833 24.85 55.15C25.6167 55.9167 26 56.8667 26 58V66H34C35.1333 66 36.0833 66.3833 36.85 67.15C37.6167 67.9167 38 68.8667 38 70C38 71.1333 37.6167 72.0833 36.85 72.85C36.0833 73.6167 35.1333 74 34 74H26C23.8 74 21.9167 73.2167 20.35 71.65C18.7833 70.0833 18 68.2 18 66ZM22 38C20.8667 38 19.9167 37.6167 19.15 36.85C18.3833 36.0833 18 35.1333 18 34V26C18 23.8 18.7833 21.9167 20.35 20.35C21.9167 18.7833 23.8 18 26 18H34C35.1333 18 36.0833 18.3833 36.85 19.15C37.6167 19.9167 38 20.8667 38 22C38 23.1333 37.6167 24.0833 36.85 24.85C36.0833 25.6167 35.1333 26 34 26H26V34C26 35.1333 25.6167 36.0833 24.85 36.85C24.0833 37.6167 23.1333 38 22 38ZM70 38C68.8667 38 67.9167 37.6167 67.15 36.85C66.3833 36.0833 66 35.1333 66 34V26H58C56.8667 26 55.9167 25.6167 55.15 24.85C54.3833 24.0833 54 23.1333 54 22C54 20.8667 54.3833 19.9167 55.15 19.15C55.9167 18.3833 56.8667 18 58 18H66C68.2 18 70.0833 18.7833 71.65 20.35C73.2167 21.9167 74 23.8 74 26V34C74 35.1333 73.6167 36.0833 72.85 36.85C72.0833 37.6167 71.1333 38 70 38Z" fill="black"/>
</svg>
